<?xml version="1.0" encoding="utf-8"?>
<!-- Generator: Adobe Illustrator 16.0.0, SVG Export Plug-In . SVG Version: 6.00 Build 0)  -->
<!DOCTYPE svg PUBLIC "-//W3C//DTD SVG 1.1//EN" "http://www.w3.org/Graphics/SVG/1.1/DTD/svg11.dtd">
<svg version="1.1" id="Layer_1" xmlns="http://www.w3.org/2000/svg" xmlns:xlink="http://www.w3.org/1999/xlink" x="0px" y="0px"
	 width="134.333px" height="134.333px" viewBox="-42.167 -42.167 134.333 134.333"
	 enable-background="new -42.167 -42.167 134.333 134.333" xml:space="preserve">
<g>
	<ellipse fill="#FFFFFF" cx="25" cy="28.476" rx="55.857" ry="52.037"/>
	<g>
		<path fill="#8BC40F" d="M28.025-7.527C10.906-7.527-3,6.381-3,23.48c0,5.669,1.582,11.224,4.535,16.089l0.816,1.334l-3.122,11.559
			l11.663-3.111l1.289,0.77c4.818,2.877,10.303,4.391,15.844,4.391c17.111,0,31.045-13.908,31.045-31.03
			C59.07,6.381,45.137-7.527,28.025-7.527z M46.252,35.2c-1.148,2.809-4.018,4.594-6.926,5.154
			c-2.781,0.549-5.068-0.367-7.648-1.189c-2.297-0.775-4.498-1.869-6.562-3.127c-4.119-2.527-7.667-5.91-10.548-9.781
			c-0.861-1.188-1.668-2.437-2.396-3.692c-1-1.676-1.879-3.469-2.342-5.346c-0.185-0.807-0.293-1.637-0.293-2.451
			c-0.043-2.879,1.062-5.771,3.334-7.633c1.318-1.078,3.279-1.561,4.748-0.715c1.615,0.908,2.457,3.213,3.184,4.826
			c0.591,1.266,1.262,2.918,1.007,4.32c-0.228,1.414-1.351,2.584-2.226,3.662c-0.619,0.697-0.713,1.287-0.207,2.041
			c2.953,4.948,7.057,8.524,12.381,10.634c0.736,0.271,1.295,0.188,1.771-0.371c0.93-1.172,1.848-3.391,3.26-3.973
			c1.838-0.752,3.912,0.303,5.471,1.25c1.469,0.869,3.93,1.945,4.336,3.762C46.775,33.464,46.609,34.386,46.252,35.2z"/>
		<path fill="#8BC40F" d="M24.998-41.616c-36.789,0-66.611,29.82-66.611,66.607c0,36.789,29.822,66.625,66.611,66.625
			c36.793,0,66.617-29.836,66.617-66.625C91.615-11.796,61.791-41.616,24.998-41.616z M28.025,61.741
			c-6.329,0-12.584-1.584-18.195-4.609l-20.832,5.578l5.578-20.729c-3.141-5.672-4.805-12.055-4.805-18.501
			c0-21.086,17.168-38.263,38.254-38.263c21.098,0,38.258,17.177,38.258,38.263C66.283,44.581,49.123,61.741,28.025,61.741z"/>
	</g>
</g>
</svg>
